<svg width="400" height="400" viewBox="0 0 400 400" xmlns="http://www.w3.org/2000/svg">
  <defs>
    <linearGradient id="bgGradient" x1="0%" y1="0%" x2="100%" y2="100%">
      <stop offset="0%" style="stop-color:#0d9488;stop-opacity:1" />
      <stop offset="100%" style="stop-color:#14b8a6;stop-opacity:1" />
    </linearGradient>
    <linearGradient id="textGradient" x1="0%" y1="0%" x2="100%" y2="0%">
      <stop offset="0%" style="stop-color:#ffffff;stop-opacity:1" />
      <stop offset="100%" style="stop-color:#f0fdfa;stop-opacity:1" />
    </linearGradient>
  </defs>
  
  <!-- Background -->
  <rect width="400" height="400" fill="url(#bgGradient)" rx="20"/>
  
  <!-- Decorative circles -->
  <circle cx="80" cy="80" r="30" fill="rgba(255,255,255,0.1)"/>
  <circle cx="320" cy="120" r="20" fill="rgba(255,255,255,0.15)"/>
  <circle cx="350" cy="300" r="25" fill="rgba(255,255,255,0.1)"/>
  <circle cx="50" cy="320" r="35" fill="rgba(255,255,255,0.08)"/>
  
  <!-- Main profile circle -->
  <circle cx="200" cy="160" r="60" fill="rgba(255,255,255,0.2)" stroke="rgba(255,255,255,0.3)" stroke-width="2"/>
  <circle cx="200" cy="160" r="45" fill="rgba(255,255,255,0.15)"/>
  
  <!-- Profile icon -->
  <path d="M200 130 C210 130 220 140 220 150 C220 160 210 170 200 170 C190 170 180 160 180 150 C180 140 190 130 200 130 Z M200 180 C170 180 165 195 165 210 L235 210 C235 195 230 180 200 180 Z" fill="url(#textGradient)"/>
  
  <!-- Name text -->
  <text x="200" y="280" font-family="Inter, sans-serif" font-size="32" font-weight="bold" text-anchor="middle" fill="url(#textGradient)">
    Azhar A
  </text>
  
  <!-- Subtitle -->
  <text x="200" y="310" font-family="Inter, sans-serif" font-size="16" font-weight="600" text-anchor="middle" fill="rgba(255,255,255,0.8)">
    ASN Laravel Developer
  </text>
  
  <!-- Tech icons -->
  <g transform="translate(120, 340)">
    <!-- Laravel icon -->
    <circle cx="20" cy="15" r="12" fill="rgba(251, 146, 60, 0.2)"/>
    <text x="20" y="20" font-family="FontAwesome" font-size="12" text-anchor="middle" fill="#f97316">🔥</text>
    
    <!-- PHP icon -->
    <circle cx="60" cy="15" r="12" fill="rgba(139, 69, 19, 0.2)"/>
    <text x="60" y="20" font-family="FontAwesome" font-size="12" text-anchor="middle" fill="#8b4513">⚡</text>
    
    <!-- Code icon -->
    <circle cx="100" cy="15" r="12" fill="rgba(34, 197, 94, 0.2)"/>
    <text x="100" y="20" font-family="FontAwesome" font-size="12" text-anchor="middle" fill="#22c55e">💻</text>
    
    <!-- Indonesia flag -->
    <circle cx="140" cy="15" r="12" fill="rgba(239, 68, 68, 0.2)"/>
    <text x="140" y="20" font-family="FontAwesome" font-size="12" text-anchor="middle" fill="#ef4444">🇮🇩</text>
  </g>
</svg>
